<svg version="1.1" id="Layer_1" xmlns="http://www.w3.org/2000/svg" xmlns:xlink="http://www.w3.org/1999/xlink" x="0px" y="0px"
	 width="100%" viewBox="0 0 496 496" enable-background="new 0 0 496 496" xml:space="preserve">
<path fill="#000000" opacity="1.000000" stroke="none" 
	d="
M57.027740,164.048523 
	C40.068127,162.519119 31.017769,172.130203 24.594774,185.485596 
	C21.552668,191.811066 19.684187,198.565445 18.480730,205.469498 
	C17.950325,208.512360 17.944551,211.933029 13.497991,211.174255 
	C9.133131,210.429413 11.283259,207.168045 11.474586,204.798996 
	C12.505048,192.039597 13.660075,179.289932 14.631482,166.526215 
	C15.117813,160.136108 16.453703,158.659409 22.855703,158.657166 
	C66.014359,158.642120 109.173019,158.642960 152.331680,158.660294 
	C158.878616,158.662918 159.735504,159.364105 160.393463,165.945053 
	C161.732285,179.336319 162.960617,192.739059 164.137680,206.145569 
	C164.313889,208.152390 165.031784,210.688202 161.732895,211.218216 
	C158.261932,211.775894 157.412445,209.434006 156.950974,206.845383 
	C155.574066,199.121704 153.736237,191.569138 150.201508,184.478546 
	C147.717377,179.495422 144.645294,174.971817 140.608704,171.176193 
	C135.996902,166.839706 130.726578,163.917236 124.091988,164.044678 
	C118.096313,164.159866 112.090965,164.164810 106.099297,163.952606 
	C102.311005,163.818420 101.259422,165.447830 101.283600,169.025497 
	C101.404106,186.854675 101.209290,204.686539 101.411751,222.514206 
	C101.461830,226.924225 99.999252,228.468872 95.657387,228.248779 
	C90.172203,227.970734 84.655235,227.992050 79.166237,228.223053 
	C74.966049,228.399811 73.677094,226.640106 73.708839,222.609131 
	C73.846649,205.113495 73.601570,187.613708 73.861465,170.120880 
	C73.934822,165.183533 72.207634,163.571548 67.513962,163.988846 
	C64.207382,164.282791 60.853806,164.048172 57.027740,164.048523 
z"/>
<path fill="#000000" opacity="1.000000" stroke="none" 
	d="
M326.497070,310.871063 
	C326.467224,318.426483 326.508179,325.590027 326.354309,332.749390 
	C326.220978,338.954712 323.938416,341.317291 317.902405,341.323151 
	C272.916168,341.366699 227.929825,341.354462 182.943542,341.318451 
	C181.112305,341.316986 178.483856,342.017395 178.567001,338.814514 
	C178.642288,335.914459 181.096436,336.128143 183.031479,336.083069 
	C187.527908,335.978271 192.036728,335.850647 196.523880,336.070984 
	C200.414185,336.262024 201.763687,334.825348 201.724091,330.878082 
	C201.555344,314.051575 201.645294,297.222351 201.658066,280.394135 
	C201.663132,273.711761 201.683456,273.700928 208.127899,273.674988 
	C213.126312,273.654846 218.140884,273.913696 223.118622,273.591034 
	C227.682861,273.295135 229.257782,274.926910 229.199280,279.538330 
	C228.987976,296.197296 229.268051,312.862915 229.010269,329.520569 
	C228.933472,334.482544 230.360031,336.223389 235.500168,336.129181 
	C251.989594,335.827087 268.491058,335.777008 284.981293,336.040924 
	C300.380737,336.287384 309.430054,326.774994 313.927948,315.004089 
	C316.429535,308.457458 318.115936,301.688324 319.621735,294.863831 
	C320.051270,292.917053 320.343842,290.916412 321.013672,289.053528 
	C321.588135,287.455902 321.848175,284.984100 324.320129,285.425201 
	C326.286774,285.776154 326.345581,287.840759 326.361053,289.522797 
	C326.425323,296.507446 326.446350,303.492493 326.497070,310.871063 
z"/>
<path fill="#000000" opacity="1.000000" stroke="none" 
	d="
M442.041382,338.108643 
	C457.549805,332.144806 467.371735,320.630859 475.159454,307.063751 
	C478.222382,301.727783 480.758148,296.090820 483.596344,290.623322 
	C484.553711,288.778992 485.067749,286.436646 487.704590,286.124725 
	C489.740509,287.087891 489.315430,288.937622 489.319092,290.512299 
	C489.356354,306.509796 489.353485,322.507446 489.319611,338.504974 
	C489.316223,340.100922 489.792511,342.158875 487.790771,342.856964 
	C485.940918,343.502045 484.742004,341.901764 483.604645,340.719757 
	C479.360413,336.309204 475.158630,331.857849 470.928894,327.409149 
	C466.555237,330.811066 462.867676,334.235382 458.674164,336.847595 
	C437.324677,350.146210 415.426971,349.852478 393.746643,338.030457 
	C370.025848,325.095825 355.381287,304.587524 346.973541,279.289795 
	C346.608032,278.190125 346.415833,277.025208 346.232025,275.876434 
	C346.157471,275.410492 346.321808,274.906311 346.451965,273.767609 
	C355.877106,273.767609 365.329742,273.576996 374.768219,273.859467 
	C378.659790,273.975891 377.841553,277.870483 377.994171,280.139343 
	C378.498535,287.638275 379.479340,295.039124 381.356110,302.299744 
	C384.101593,312.921051 388.117554,323.006378 396.604767,330.418457 
	C409.956512,342.078918 425.407501,342.810669 442.041382,338.108643 
z"/>
<path fill="#000000" opacity="1.000000" stroke="none" 
	d="
M420.542694,161.445435 
	C395.151550,164.894867 385.460999,182.463211 380.398254,204.296738 
	C378.968933,210.460815 378.238434,216.727798 377.947845,223.046936 
	C377.783722,226.616013 376.245392,228.370880 372.337280,228.244675 
	C364.851288,228.002930 357.352600,228.132736 349.859283,228.150604 
	C346.548706,228.158493 345.424133,226.987335 346.459808,223.526016 
	C354.456085,196.802704 369.321869,175.246384 394.863831,162.971054 
	C419.270844,151.241165 443.518982,152.684479 466.489838,167.774506 
	C467.179962,168.227875 467.867432,168.685318 468.746918,169.266998 
	C472.807312,166.814667 475.333832,162.769394 478.787994,159.737610 
	C480.256805,158.448425 481.632874,156.453522 483.856964,157.267319 
	C486.041901,158.066833 486.176178,160.387741 486.182190,162.378937 
	C486.224335,176.366409 486.201050,190.354080 486.180847,204.341660 
	C486.178680,205.845993 486.109711,207.367676 484.509064,208.525467 
	C481.518341,207.945251 481.423157,205.061844 480.589172,202.937012 
	C475.492676,189.952484 468.081268,178.808197 456.450775,170.651993 
	C445.715668,163.123703 433.834961,160.542648 420.542694,161.445435 
z"/>
<path fill="#000000" opacity="1.000000" stroke="none" 
	d="
M186.134949,158.650986 
	C209.048584,158.650696 231.479950,158.650696 253.763092,158.650696 
	C255.148361,162.412735 254.082260,164.011749 250.674957,164.014679 
	C246.346100,164.018387 242.017105,164.035660 237.688400,164.011108 
	C229.082291,163.962280 229.094498,163.952087 229.105072,172.798325 
	C229.124390,188.948608 229.136948,205.098907 229.133423,221.249207 
	C229.131943,228.059311 229.003235,228.172989 222.107758,228.180878 
	C217.279343,228.186417 212.439514,227.956375 207.625793,228.218109 
	C203.150528,228.461441 201.495819,226.940506 201.559448,222.252563 
	C201.796707,204.773499 201.531143,187.287811 201.737320,169.807968 
	C201.787842,165.524796 200.617752,163.686386 196.141861,163.981049 
	C191.832642,164.264755 187.486832,164.077652 183.160095,163.973434 
	C181.098541,163.923767 178.358932,164.397812 178.547470,161.018188 
	C178.719467,157.934814 181.332901,158.882065 183.156876,158.672302 
	C183.978760,158.577789 184.820129,158.653046 186.134949,158.650986 
z"/>
<path fill="#000000" opacity="1.000000" stroke="none" 
	d="
M95.999817,341.375122 
	C82.173149,341.369659 68.846260,341.401428 55.520119,341.315735 
	C53.737877,341.304291 51.045486,342.139496 50.906879,339.020508 
	C50.760296,335.722046 53.491058,336.089966 55.562332,336.036560 
	C59.724232,335.929321 63.906281,335.770844 68.050919,336.056091 
	C72.373611,336.353638 73.896675,334.821442 73.842453,330.389465 
	C73.636620,313.567108 73.902489,296.738800 73.677582,279.916931 
	C73.615234,275.253784 74.839912,273.217499 79.810303,273.578003 
	C84.947327,273.950562 90.153999,273.953003 95.290375,273.575439 
	C100.272224,273.209259 101.478218,275.268524 101.416512,279.916229 
	C101.195381,296.571594 101.505974,313.234558 101.233070,329.888336 
	C101.152786,334.787598 102.771828,336.411316 107.515038,336.072754 
	C111.821503,335.765289 116.172752,336.007446 120.501213,336.122314 
	C122.363785,336.171753 124.327507,336.395721 124.173515,339.067841 
	C124.030151,341.555725 122.091148,341.315674 120.487389,341.326752 
	C112.491806,341.382050 104.495720,341.366333 95.999817,341.375122 
z"/>
<path fill="#000000" opacity="1.000000" stroke="none" 
	d="
M376.738251,241.315308 
	C379.286102,240.791718 380.217590,241.910187 380.238464,243.928146 
	C380.279785,247.921082 380.292999,251.915268 380.235199,255.907761 
	C380.213165,257.429474 380.045013,259.068176 377.926697,259.060974 
	C375.762756,259.053650 375.785126,257.362244 375.709076,255.866058 
	C375.642944,254.564346 375.695282,253.256622 375.695282,251.506943 
	C373.209167,253.152176 373.055328,256.562775 370.478638,257.026428 
	C367.272247,257.603424 367.111176,253.836151 365.100281,252.521118 
	C364.028625,252.902618 364.466095,253.877335 364.329559,254.616943 
	C363.999786,256.403412 364.974731,259.173187 361.798462,259.007965 
	C359.113129,258.868256 359.775146,256.382538 359.707458,254.704910 
	C359.580109,251.548294 359.612061,248.381317 359.695892,245.221771 
	C359.737457,243.655426 359.249756,241.638245 361.591553,241.205292 
	C363.622925,240.829758 364.462036,242.436508 365.413055,243.823242 
	C366.805267,245.853241 367.591156,248.320282 369.844452,250.023865 
	C373.069580,247.952271 373.548187,243.773422 376.738251,241.315308 
z"/>
<path fill="#000000" opacity="1.000000" stroke="none" 
	d="
M453.149353,243.673706 
	C454.783600,245.573471 456.180389,247.192505 457.649292,248.895157 
	C459.393707,247.390259 458.534515,245.629578 458.725586,244.119766 
	C458.933929,242.473679 459.330994,241.111938 461.278900,241.101273 
	C463.225800,241.090607 463.855194,242.540817 463.905853,244.108276 
	C464.034607,248.092163 464.049591,252.082489 463.985229,256.068237 
	C463.964264,257.366638 463.774200,258.801880 462.063629,259.151947 
	C460.633087,259.444733 459.434753,259.008972 458.487488,257.917145 
	C456.656586,255.806793 454.842194,253.682114 452.485687,250.940643 
	C452.249359,253.385910 452.128723,255.117340 451.901917,256.834747 
	C451.704346,258.330688 450.903870,259.257660 449.257141,259.198975 
	C447.611481,259.140350 446.849304,258.196198 446.835236,256.655090 
	C446.795837,252.335403 446.541962,247.993149 446.892395,243.702240 
	C447.167908,240.328720 449.191254,240.273605 453.149353,243.673706 
z"/>
<path fill="#000000" opacity="1.000000" stroke="none" 
	d="
M167.836029,243.158188 
	C170.319519,239.626160 172.403595,240.382874 172.859192,243.836060 
	C173.397064,247.912979 173.222610,252.132812 172.911743,256.257141 
	C172.666763,259.507599 170.133224,260.294189 167.723816,257.955505 
	C165.714706,256.005402 164.014160,253.737411 161.898712,251.288025 
	C160.615570,253.130219 161.281189,254.995575 160.914581,256.622314 
	C160.594330,258.043396 160.024078,259.154633 158.369720,259.156525 
	C156.752304,259.158386 155.887100,258.207153 155.858749,256.680481 
	C155.778671,252.367020 155.504807,248.026581 155.870499,243.744888 
	C156.174637,240.183853 158.534149,240.446976 160.797256,242.201233 
	C163.143936,244.020264 164.094421,247.195999 166.916534,248.765366 
	C168.359360,247.166824 167.405304,245.243210 167.836029,243.158188 
z"/>
<path fill="#000000" opacity="1.000000" stroke="none" 
	d="
M333.187927,258.003204 
	C329.056244,254.444290 327.697601,250.459259 330.208649,245.814423 
	C332.324677,241.900177 335.928589,240.332352 340.253571,240.829086 
	C344.850952,241.357147 347.813721,243.989777 348.874084,248.564667 
	C349.722351,252.224442 348.214508,255.116577 345.521454,257.362549 
	C341.788757,260.475586 337.694824,260.539307 333.187927,258.003204 
M343.687744,249.634079 
	C343.281647,246.322128 341.193878,245.040558 338.148102,245.530121 
	C335.505493,245.954910 334.295593,247.883255 334.334229,250.531006 
	C334.370544,253.019699 335.693787,254.767776 338.076935,255.038727 
	C341.315186,255.406921 343.494080,253.949066 343.687744,249.634079 
z"/>
<path fill="#000000" opacity="1.000000" stroke="none" 
	d="
M184.709045,244.266235 
	C184.796432,241.981766 185.830307,241.076157 187.549545,240.955978 
	C190.875015,240.723511 194.209976,240.618713 197.376465,241.922897 
	C200.926453,243.385010 203.042847,246.064850 203.169113,249.903839 
	C203.302994,253.974854 201.131393,256.910431 197.526428,258.533905 
	C194.074280,260.088593 190.329514,259.377777 186.710693,259.136749 
	C184.669128,259.000763 184.730820,257.188141 184.711731,255.701294 
	C184.664795,252.047028 184.690979,248.391830 184.709045,244.266235 
M190.916031,254.691971 
	C191.735901,254.745331 192.564926,254.904007 193.374023,254.833603 
	C196.671448,254.546661 198.032913,252.588989 197.675659,249.431091 
	C197.323303,246.316391 195.090485,245.354996 192.369843,245.428452 
	C188.803375,245.524719 189.448334,248.324692 189.384583,250.555267 
	C189.347382,251.857224 189.188736,253.231186 190.916031,254.691971 
z"/>
<path fill="#000000" opacity="1.000000" stroke="none" 
	d="
M235.412750,253.110291 
	C235.383713,254.295059 235.383484,255.126572 235.335754,255.955322 
	C235.248062,257.477173 235.214676,259.072052 233.074722,259.114838 
	C230.929565,259.157806 230.750549,257.600098 230.729004,256.051178 
	C230.675858,252.231354 230.667862,248.410416 230.693100,244.590271 
	C230.701752,243.280594 230.595627,241.789932 232.202728,241.241394 
	C233.870316,240.672226 235.096390,241.603348 236.109634,242.772644 
	C238.042542,245.003250 239.916916,247.284607 242.376373,250.212509 
	C242.541183,247.349045 242.621613,245.273239 242.793549,243.205048 
	C242.905853,241.854309 243.706726,241.122025 245.093079,241.120911 
	C246.549820,241.119751 247.222336,242.015137 247.239807,243.318741 
	C247.299911,247.801498 247.633514,252.321793 247.179138,256.757751 
	C246.787186,260.584259 244.169510,259.621460 242.272705,257.874817 
	C240.458374,256.204132 239.078079,254.066727 237.469574,252.166153 
	C236.409454,250.913544 235.578781,250.738144 235.412750,253.110291 
z"/>
<path fill="#000000" opacity="1.000000" stroke="none" 
	d="
M433.034668,249.075424 
	C434.133362,252.510681 436.556946,255.115616 436.343048,258.641724 
	C432.164581,261.105164 430.759552,255.666122 427.073486,255.642624 
	C423.369293,255.619034 421.968994,261.050903 417.315094,258.363434 
	C419.254761,252.835495 421.397583,247.336731 424.503052,242.358521 
	C426.039001,239.896317 428.577301,240.391129 430.108856,242.914413 
	C431.217529,244.740982 431.970856,246.783218 433.034668,249.075424 
z"/>
<path fill="#000000" opacity="1.000000" stroke="none" 
	d="
M275.938446,254.672089 
	C274.995819,259.886017 271.053467,259.609863 267.680328,259.602264 
	C263.522644,259.592896 260.213196,257.520294 258.864227,253.448792 
	C257.632233,249.730347 258.241058,246.067123 261.373657,243.404373 
	C264.841309,240.456818 268.829132,239.857681 273.020172,241.861740 
	C274.360413,242.502609 275.937561,243.287277 275.133453,245.202286 
	C274.487671,246.740280 273.047577,246.583038 271.680695,246.222473 
	C270.567657,245.928879 269.454834,245.427261 268.335266,245.408112 
	C265.852905,245.365570 264.231140,246.859329 263.581238,249.102753 
	C262.897766,251.462250 263.900330,253.445297 266.054230,254.535950 
	C267.997437,255.519897 270.051514,255.762283 270.793091,252.962814 
	C271.236572,251.288651 271.473267,249.454788 273.793060,249.859009 
	C276.341064,250.302963 275.752747,252.532516 275.938446,254.672089 
z"/>
<path fill="#000000" opacity="1.000000" stroke="none" 
	d="
M403.015930,241.520981 
	C406.864502,242.821304 408.608917,245.283936 408.007446,248.845413 
	C407.414246,252.357895 405.012939,254.236557 401.398254,254.391373 
	C399.328033,254.480042 397.421997,254.626389 397.099060,257.368927 
	C396.901825,259.044006 395.538422,259.331055 394.094971,259.138641 
	C392.414551,258.914673 392.006104,257.605621 391.975342,256.243134 
	C391.885925,252.279678 391.895996,248.313675 391.894165,244.348663 
	C391.893127,242.146591 393.040161,240.988739 395.232422,240.908630 
	C397.707977,240.818146 400.191528,240.667007 403.015930,241.520981 
M398.683472,250.381317 
	C400.782257,250.281174 402.896881,250.007584 402.464325,247.164307 
	C402.225769,245.596085 400.689545,245.148361 399.344086,245.504303 
	C396.508179,246.254578 397.012878,248.140350 398.683472,250.381317 
z"/>
<path fill="#000000" opacity="1.000000" stroke="none" 
	d="
M71.239113,246.787292 
	C72.318871,247.964920 73.525352,247.732025 74.670021,247.798691 
	C76.330048,247.895386 78.291061,247.760345 78.405334,250.090881 
	C78.532883,252.692444 76.396484,252.121597 74.831268,252.330322 
	C73.472076,252.511597 71.756340,251.684708 70.817398,253.796280 
	C72.624245,255.836929 75.165237,254.687454 77.281761,255.197220 
	C78.625702,255.520889 80.020027,255.833908 79.876427,257.602203 
	C79.751762,259.137329 78.413879,259.387451 77.266327,259.275726 
	C73.560471,258.915039 68.151230,261.283783 66.512657,257.989441 
	C64.242393,253.425125 65.176949,247.547485 66.179337,242.331299 
	C66.595367,240.166367 69.303879,240.661285 70.969360,240.896973 
	C73.831459,241.301956 78.724213,238.967255 79.103539,242.886581 
	C79.545654,247.454697 74.396927,244.197891 72.108093,245.517426 
	C71.721779,245.740143 71.450729,246.162796 71.239113,246.787292 
z"/>
<path fill="#000000" opacity="1.000000" stroke="none" 
	d="
M141.558151,259.331848 
	C130.598038,259.389191 130.598022,259.389191 130.611633,249.054123 
	C130.622360,240.911270 133.596741,238.793915 141.914093,240.937775 
	C143.166443,241.260590 144.129395,241.696884 144.058182,243.173981 
	C143.987549,244.638809 142.980545,245.026840 141.722443,245.246155 
	C139.853546,245.571991 137.708328,244.653549 136.049942,246.424698 
	C136.887100,248.694351 138.878128,247.558121 140.290848,247.926941 
	C141.607071,248.270554 143.028885,248.381271 143.056992,250.168869 
	C143.086258,252.030609 141.663849,252.059082 140.312073,252.300171 
	C138.696533,252.588287 136.543472,251.432922 135.513275,254.048386 
	C137.387848,256.193939 139.898758,254.644318 141.994202,255.157394 
	C143.153564,255.441284 144.417435,255.601028 144.569870,257.043060 
	C144.762253,258.862885 143.428833,259.199982 141.558151,259.331848 
z"/>
<path fill="#000000" opacity="1.000000" stroke="none" 
	d="
M41.046967,257.953247 
	C38.215771,259.988831 36.808041,259.106415 36.737919,256.117676 
	C36.644566,252.138901 36.696152,248.156235 36.719803,244.175446 
	C36.729424,242.555939 37.128422,241.136002 39.145287,241.120850 
	C40.930798,241.107452 41.365910,242.379486 41.322117,243.807693 
	C41.241886,246.424377 42.113300,247.805023 45.037262,247.746765 
	C47.964455,247.688477 48.717762,246.159271 48.716648,243.636627 
	C48.715866,241.862762 49.591408,240.809692 51.508900,241.012695 
	C53.339195,241.206497 53.390682,242.608841 53.388306,243.967224 
	C53.381042,248.113968 53.366909,252.261078 53.296585,256.407074 
	C53.272709,257.814941 52.892147,259.052887 51.100986,259.114716 
	C49.343155,259.175323 48.725239,258.100555 48.751205,256.612457 
	C48.798252,253.916428 48.174603,252.219910 44.873970,252.303009 
	C40.956863,252.401642 41.570427,255.211365 41.046967,257.953247 
z"/>
<path fill="#000000" opacity="1.000000" stroke="none" 
	d="
M317.139313,258.418091 
	C315.371918,258.984283 313.941193,259.575897 312.485077,259.646881 
	C307.845795,259.872986 304.512238,257.770050 302.638855,253.505829 
	C300.936432,249.630768 302.139587,246.147964 304.959076,243.523926 
	C308.243988,240.466721 312.313782,239.793167 316.516663,241.795532 
	C317.810028,242.411728 319.555725,243.177094 318.719330,245.066864 
	C318.014557,246.659058 316.482727,246.870773 314.892609,246.108383 
	C312.357208,244.892776 309.988647,245.014832 308.216797,247.380890 
	C306.909180,249.126953 306.863800,251.183319 308.090271,252.981415 
	C309.905212,255.642258 312.400269,255.765915 315.107269,254.390182 
	C316.297089,253.785522 317.358429,253.918259 318.246948,254.929062 
	C319.515167,256.371735 318.576843,257.315948 317.139313,258.418091 
z"/>
<path fill="#000000" opacity="1.000000" stroke="none" 
	d="
M479.131744,242.611038 
	C480.241669,244.265869 481.137512,245.626038 482.030426,246.981796 
	C485.667511,246.106476 485.319733,239.206406 490.808990,241.560349 
	C490.971466,244.620697 488.788330,246.483292 487.569885,248.733490 
	C486.378510,250.933701 485.083618,252.998520 485.177643,255.658142 
	C485.238434,257.378143 484.898712,259.072998 482.616150,259.177704 
	C480.365540,259.280914 479.707245,257.794739 479.808990,255.960388 
	C480.116852,250.411240 475.054779,247.039246 474.069397,242.021393 
	C475.941437,240.305573 477.463135,240.867599 479.131744,242.611038 
z"/>
<path fill="#000000" opacity="1.000000" stroke="none" 
	d="
M12.076469,244.985016 
	C10.008162,242.304443 11.158957,241.078308 13.713943,240.941818 
	C17.018761,240.765305 20.339813,240.863953 23.653416,240.894241 
	C25.057703,240.907074 26.376902,241.277634 26.608335,242.929916 
	C26.859203,244.720978 25.596107,245.230377 24.159012,245.314728 
	C21.681572,245.460129 21.265583,247.047256 21.292183,249.080856 
	C21.322527,251.400681 21.305227,253.722198 21.252007,256.041687 
	C21.216091,257.606873 20.978748,259.083374 18.913900,259.179138 
	C16.637207,259.284698 16.120602,257.752747 16.037310,255.971161 
	C15.929020,253.654907 15.898103,251.330750 15.948909,249.012527 
	C16.002413,246.571075 14.886114,245.301178 12.076469,244.985016 
z"/>
<path fill="#000000" opacity="1.000000" stroke="none" 
	d="
M112.983505,259.368896 
	C107.991928,260.010468 106.131752,258.145203 106.615479,253.548828 
	C106.908661,250.763016 106.618988,247.920166 106.698280,245.105957 
	C106.747673,243.352982 106.398949,241.035782 109.156815,241.149673 
	C111.906067,241.263214 111.231155,243.636871 111.349640,245.327866 
	C111.453583,246.811478 111.465828,248.316223 111.346626,249.797791 
	C111.077461,253.142944 111.930649,255.275406 115.903038,255.050507 
	C117.589851,254.955002 120.052765,254.774994 119.891075,257.473389 
	C119.749710,259.832489 117.478470,259.166046 115.943085,259.338593 
	C115.124550,259.430573 114.288162,259.363770 112.983505,259.368896 
z"/>
<path fill="#000000" opacity="1.000000" stroke="none" 
	d="
M213.698212,247.141266 
	C213.724472,245.676193 213.718307,244.682678 213.784241,243.693970 
	C213.900757,241.946976 214.767944,240.897003 216.614639,241.007370 
	C218.213898,241.102966 219.009277,242.187653 219.030777,243.642548 
	C219.094254,247.937241 219.082901,252.234955 218.989197,256.529053 
	C218.951752,258.245026 218.014740,259.285400 216.135986,259.181824 
	C214.456299,259.089203 213.843475,258.009979 213.804642,256.540955 
	C213.726044,253.566772 213.728973,250.590439 213.698212,247.141266 
z"/>
</svg>